<svg xmlns="http://www.w3.org/2000/svg" width="1060" height="672" viewBox="0 0 1060 672" role="img" aria-labelledby="title desc">
<title id="title">CPU latency / raw measurements</title>
<desc id="desc">x86_64 macOS · PyTorch 2.2.2 · torch.float32 · 1 thread(s) · median of 25 calls</desc>
<rect width="100%" height="100%" rx="16" fill="#0b1220"/>
<g font-family="ui-monospace,SFMono-Regular,Consolas,monospace">
<text x="28" y="38" fill="#f1f5f9" font-size="21" font-weight="700">CPU latency / raw measurements</text>
<text x="28" y="63" fill="#94a3b8" font-size="12">x86_64 macOS · PyTorch 2.2.2 · torch.float32 · 1 thread(s) · median of 25 calls</text>
<rect x="28" y="82" width="11" height="11" fill="#94a3b8"/>
<text x="47" y="92" fill="#cbd5e1" font-size="12">PyTorch eager</text>
<rect x="328" y="82" width="11" height="11" fill="#fbbf24"/>
<text x="347" y="92" fill="#cbd5e1" font-size="12">ForgeML unoptimized</text>
<rect x="628" y="82" width="11" height="11" fill="#67e8f9"/>
<text x="647" y="92" fill="#cbd5e1" font-size="12">ForgeML optimized</text>
<path d="M230.0 115 V636" stroke="#263244" stroke-width="1"/>
<text x="230.0" y="657" fill="#94a3b8" font-size="11">0.00 ms</text>
<path d="M402.5 115 V636" stroke="#263244" stroke-width="1"/>
<text x="402.5" y="657" fill="#94a3b8" font-size="11">0.25 ms</text>
<path d="M575.0 115 V636" stroke="#263244" stroke-width="1"/>
<text x="575.0" y="657" fill="#94a3b8" font-size="11">0.49 ms</text>
<path d="M747.5 115 V636" stroke="#263244" stroke-width="1"/>
<text x="747.5" y="657" fill="#94a3b8" font-size="11">0.74 ms</text>
<path d="M920.0 115 V636" stroke="#263244" stroke-width="1"/>
<text x="920.0" y="657" fill="#94a3b8" font-size="11">0.99 ms</text>
<text x="28" y="137" fill="#e2e8f0" font-size="12">mlp_8_64_128</text>
<rect x="230" y="122" width="47.83" height="12" rx="2" fill="#94a3b8"/>
<text x="284.83" y="133" fill="#cbd5e1" font-size="11">0.068</text>
<rect x="230" y="141" width="80.47" height="12" rx="2" fill="#fbbf24"/>
<text x="317.47" y="152" fill="#cbd5e1" font-size="11">0.115</text>
<rect x="230" y="160" width="70.99" height="12" rx="2" fill="#67e8f9"/>
<text x="307.99" y="171" fill="#cbd5e1" font-size="11">0.102</text>
<text x="28" y="224" fill="#e2e8f0" font-size="12">residual_8_64_128</text>
<rect x="230" y="209" width="82.42" height="12" rx="2" fill="#94a3b8"/>
<text x="319.42" y="220" fill="#cbd5e1" font-size="11">0.118</text>
<rect x="230" y="228" width="128.02" height="12" rx="2" fill="#fbbf24"/>
<text x="365.02" y="239" fill="#cbd5e1" font-size="11">0.183</text>
<rect x="230" y="247" width="112.85" height="12" rx="2" fill="#67e8f9"/>
<text x="349.85" y="258" fill="#cbd5e1" font-size="11">0.161</text>
<text x="28" y="311" fill="#e2e8f0" font-size="12">mlp_32_128_256</text>
<rect x="230" y="296" width="151.67" height="12" rx="2" fill="#94a3b8"/>
<text x="388.67" y="307" fill="#cbd5e1" font-size="11">0.217</text>
<rect x="230" y="315" width="180.19" height="12" rx="2" fill="#fbbf24"/>
<text x="417.19" y="326" fill="#cbd5e1" font-size="11">0.258</text>
<rect x="230" y="334" width="154.46" height="12" rx="2" fill="#67e8f9"/>
<text x="391.46" y="345" fill="#cbd5e1" font-size="11">0.221</text>
<text x="28" y="398" fill="#e2e8f0" font-size="12">residual_32_128_256</text>
<rect x="230" y="383" width="184.22" height="12" rx="2" fill="#94a3b8"/>
<text x="421.22" y="394" fill="#cbd5e1" font-size="11">0.264</text>
<rect x="230" y="402" width="207.86" height="12" rx="2" fill="#fbbf24"/>
<text x="444.86" y="413" fill="#cbd5e1" font-size="11">0.297</text>
<rect x="230" y="421" width="191.01" height="12" rx="2" fill="#67e8f9"/>
<text x="428.01" y="432" fill="#cbd5e1" font-size="11">0.273</text>
<text x="28" y="485" fill="#e2e8f0" font-size="12">mlp_64_256_512</text>
<rect x="230" y="470" width="539.96" height="12" rx="2" fill="#94a3b8"/>
<text x="776.96" y="481" fill="#cbd5e1" font-size="11">0.772</text>
<rect x="230" y="489" width="524.06" height="12" rx="2" fill="#fbbf24"/>
<text x="761.06" y="500" fill="#cbd5e1" font-size="11">0.750</text>
<rect x="230" y="508" width="491.68" height="12" rx="2" fill="#67e8f9"/>
<text x="728.68" y="519" fill="#cbd5e1" font-size="11">0.703</text>
<text x="28" y="572" fill="#e2e8f0" font-size="12">residual_64_256_512</text>
<rect x="230" y="557" width="576.48" height="12" rx="2" fill="#94a3b8"/>
<text x="813.48" y="568" fill="#cbd5e1" font-size="11">0.825</text>
<rect x="230" y="576" width="616.07" height="12" rx="2" fill="#fbbf24"/>
<text x="853.07" y="587" fill="#cbd5e1" font-size="11">0.881</text>
<rect x="230" y="595" width="603.53" height="12" rx="2" fill="#67e8f9"/>
<text x="840.53" y="606" fill="#cbd5e1" font-size="11">0.863</text>
</g></svg>
