<svg xmlns="http://www.w3.org/2000/svg" width="1060" height="672" viewBox="0 0 1060 672" role="img" aria-labelledby="title desc">
<title id="title">CPU latency / raw measurements</title>
<desc id="desc">x86_64 macOS · PyTorch 2.2.2 · torch.float32 · 1 thread(s) · median of 25 calls</desc>
<rect width="100%" height="100%" rx="16" fill="#0b1220"/>
<g font-family="ui-monospace,SFMono-Regular,Consolas,monospace">
<text x="28" y="38" fill="#f1f5f9" font-size="21" font-weight="700">CPU latency / raw measurements</text>
<text x="28" y="63" fill="#94a3b8" font-size="12">x86_64 macOS · PyTorch 2.2.2 · torch.float32 · 1 thread(s) · median of 25 calls</text>
<rect x="28" y="82" width="11" height="11" fill="#94a3b8"/>
<text x="47" y="92" fill="#cbd5e1" font-size="12">PyTorch eager</text>
<rect x="328" y="82" width="11" height="11" fill="#fbbf24"/>
<text x="347" y="92" fill="#cbd5e1" font-size="12">ForgeML unoptimized</text>
<rect x="628" y="82" width="11" height="11" fill="#67e8f9"/>
<text x="647" y="92" fill="#cbd5e1" font-size="12">ForgeML optimized</text>
<path d="M230.0 115 V636" stroke="#263244" stroke-width="1"/>
<text x="230.0" y="657" fill="#94a3b8" font-size="11">0.00 ms</text>
<path d="M402.5 115 V636" stroke="#263244" stroke-width="1"/>
<text x="402.5" y="657" fill="#94a3b8" font-size="11">0.38 ms</text>
<path d="M575.0 115 V636" stroke="#263244" stroke-width="1"/>
<text x="575.0" y="657" fill="#94a3b8" font-size="11">0.77 ms</text>
<path d="M747.5 115 V636" stroke="#263244" stroke-width="1"/>
<text x="747.5" y="657" fill="#94a3b8" font-size="11">1.15 ms</text>
<path d="M920.0 115 V636" stroke="#263244" stroke-width="1"/>
<text x="920.0" y="657" fill="#94a3b8" font-size="11">1.54 ms</text>
<text x="28" y="137" fill="#e2e8f0" font-size="12">mlp_8_64_128</text>
<rect x="230" y="122" width="38.74" height="12" rx="2" fill="#94a3b8"/>
<text x="275.74" y="133" fill="#cbd5e1" font-size="11">0.086</text>
<rect x="230" y="141" width="46.78" height="12" rx="2" fill="#fbbf24"/>
<text x="283.78" y="152" fill="#cbd5e1" font-size="11">0.104</text>
<rect x="230" y="160" width="36.72" height="12" rx="2" fill="#67e8f9"/>
<text x="273.72" y="171" fill="#cbd5e1" font-size="11">0.082</text>
<text x="28" y="224" fill="#e2e8f0" font-size="12">residual_8_64_128</text>
<rect x="230" y="209" width="55.91" height="12" rx="2" fill="#94a3b8"/>
<text x="292.91" y="220" fill="#cbd5e1" font-size="11">0.125</text>
<rect x="230" y="228" width="71.93" height="12" rx="2" fill="#fbbf24"/>
<text x="308.93" y="239" fill="#cbd5e1" font-size="11">0.161</text>
<rect x="230" y="247" width="60.28" height="12" rx="2" fill="#67e8f9"/>
<text x="297.28" y="258" fill="#cbd5e1" font-size="11">0.135</text>
<text x="28" y="311" fill="#e2e8f0" font-size="12">mlp_32_128_256</text>
<rect x="230" y="296" width="121.96" height="12" rx="2" fill="#94a3b8"/>
<text x="358.96" y="307" fill="#cbd5e1" font-size="11">0.272</text>
<rect x="230" y="315" width="114.31" height="12" rx="2" fill="#fbbf24"/>
<text x="351.31" y="326" fill="#cbd5e1" font-size="11">0.255</text>
<rect x="230" y="334" width="108.56" height="12" rx="2" fill="#67e8f9"/>
<text x="345.56" y="345" fill="#cbd5e1" font-size="11">0.242</text>
<text x="28" y="398" fill="#e2e8f0" font-size="12">residual_32_128_256</text>
<rect x="230" y="383" width="146.81" height="12" rx="2" fill="#94a3b8"/>
<text x="383.81" y="394" fill="#cbd5e1" font-size="11">0.328</text>
<rect x="230" y="402" width="124.08" height="12" rx="2" fill="#fbbf24"/>
<text x="361.08" y="413" fill="#cbd5e1" font-size="11">0.277</text>
<rect x="230" y="421" width="117.32" height="12" rx="2" fill="#67e8f9"/>
<text x="354.32" y="432" fill="#cbd5e1" font-size="11">0.262</text>
<text x="28" y="485" fill="#e2e8f0" font-size="12">mlp_64_256_512</text>
<rect x="230" y="470" width="600.57" height="12" rx="2" fill="#94a3b8"/>
<text x="837.57" y="481" fill="#cbd5e1" font-size="11">1.340</text>
<rect x="230" y="489" width="466.18" height="12" rx="2" fill="#fbbf24"/>
<text x="703.18" y="500" fill="#cbd5e1" font-size="11">1.040</text>
<rect x="230" y="508" width="522.46" height="12" rx="2" fill="#67e8f9"/>
<text x="759.46" y="519" fill="#cbd5e1" font-size="11">1.166</text>
<text x="28" y="572" fill="#e2e8f0" font-size="12">residual_64_256_512</text>
<rect x="230" y="557" width="616.07" height="12" rx="2" fill="#94a3b8"/>
<text x="853.07" y="568" fill="#cbd5e1" font-size="11">1.375</text>
<rect x="230" y="576" width="585.63" height="12" rx="2" fill="#fbbf24"/>
<text x="822.63" y="587" fill="#cbd5e1" font-size="11">1.307</text>
<rect x="230" y="595" width="575.14" height="12" rx="2" fill="#67e8f9"/>
<text x="812.14" y="606" fill="#cbd5e1" font-size="11">1.284</text>
</g></svg>
